<svg id="visual" viewBox="0 0 1920 1080" width="1920" height="1080" xmlns="http://www.w3.org/2000/svg" xmlns:xlink="http://www.w3.org/1999/xlink" version="1.1"><rect x="0" y="0" width="1920" height="1080" fill="#001220"></rect><defs><linearGradient id="grad1_0" x1="43.8%" y1="0%" x2="100%" y2="100%"><stop offset="14.444444444444446%" stop-color="#ffaa00" stop-opacity="1"></stop><stop offset="85.55555555555554%" stop-color="#ffaa00" stop-opacity="1"></stop></linearGradient></defs><defs><linearGradient id="grad1_1" x1="43.8%" y1="0%" x2="100%" y2="100%"><stop offset="14.444444444444446%" stop-color="#ffaa00" stop-opacity="1"></stop><stop offset="85.55555555555554%" stop-color="#fd7a3c" stop-opacity="1"></stop></linearGradient></defs><defs><linearGradient id="grad1_2" x1="43.8%" y1="0%" x2="100%" y2="100%"><stop offset="14.444444444444446%" stop-color="#e4555a" stop-opacity="1"></stop><stop offset="85.55555555555554%" stop-color="#fd7a3c" stop-opacity="1"></stop></linearGradient></defs><defs><linearGradient id="grad1_3" x1="43.8%" y1="0%" x2="100%" y2="100%"><stop offset="14.444444444444446%" stop-color="#e4555a" stop-opacity="1"></stop><stop offset="85.55555555555554%" stop-color="#b8406c" stop-opacity="1"></stop></linearGradient></defs><defs><linearGradient id="grad1_4" x1="43.8%" y1="0%" x2="100%" y2="100%"><stop offset="14.444444444444446%" stop-color="#81386e" stop-opacity="1"></stop><stop offset="85.55555555555554%" stop-color="#b8406c" stop-opacity="1"></stop></linearGradient></defs><defs><linearGradient id="grad1_5" x1="43.8%" y1="0%" x2="100%" y2="100%"><stop offset="14.444444444444446%" stop-color="#81386e" stop-opacity="1"></stop><stop offset="85.55555555555554%" stop-color="#4a3160" stop-opacity="1"></stop></linearGradient></defs><defs><linearGradient id="grad1_6" x1="43.8%" y1="0%" x2="100%" y2="100%"><stop offset="14.444444444444446%" stop-color="#1b2443" stop-opacity="1"></stop><stop offset="85.55555555555554%" stop-color="#4a3160" stop-opacity="1"></stop></linearGradient></defs><defs><linearGradient id="grad1_7" x1="43.8%" y1="0%" x2="100%" y2="100%"><stop offset="14.444444444444446%" stop-color="#1b2443" stop-opacity="1"></stop><stop offset="85.55555555555554%" stop-color="#001220" stop-opacity="1"></stop></linearGradient></defs><defs><linearGradient id="grad2_0" x1="0%" y1="0%" x2="56.3%" y2="100%"><stop offset="14.444444444444446%" stop-color="#ffaa00" stop-opacity="1"></stop><stop offset="85.55555555555554%" stop-color="#ffaa00" stop-opacity="1"></stop></linearGradient></defs><defs><linearGradient id="grad2_1" x1="0%" y1="0%" x2="56.3%" y2="100%"><stop offset="14.444444444444446%" stop-color="#fd7a3c" stop-opacity="1"></stop><stop offset="85.55555555555554%" stop-color="#ffaa00" stop-opacity="1"></stop></linearGradient></defs><defs><linearGradient id="grad2_2" x1="0%" y1="0%" x2="56.3%" y2="100%"><stop offset="14.444444444444446%" stop-color="#fd7a3c" stop-opacity="1"></stop><stop offset="85.55555555555554%" stop-color="#e4555a" stop-opacity="1"></stop></linearGradient></defs><defs><linearGradient id="grad2_3" x1="0%" y1="0%" x2="56.3%" y2="100%"><stop offset="14.444444444444446%" stop-color="#b8406c" stop-opacity="1"></stop><stop offset="85.55555555555554%" stop-color="#e4555a" stop-opacity="1"></stop></linearGradient></defs><defs><linearGradient id="grad2_4" x1="0%" y1="0%" x2="56.3%" y2="100%"><stop offset="14.444444444444446%" stop-color="#b8406c" stop-opacity="1"></stop><stop offset="85.55555555555554%" stop-color="#81386e" stop-opacity="1"></stop></linearGradient></defs><defs><linearGradient id="grad2_5" x1="0%" y1="0%" x2="56.3%" y2="100%"><stop offset="14.444444444444446%" stop-color="#4a3160" stop-opacity="1"></stop><stop offset="85.55555555555554%" stop-color="#81386e" stop-opacity="1"></stop></linearGradient></defs><defs><linearGradient id="grad2_6" x1="0%" y1="0%" x2="56.3%" y2="100%"><stop offset="14.444444444444446%" stop-color="#4a3160" stop-opacity="1"></stop><stop offset="85.55555555555554%" stop-color="#1b2443" stop-opacity="1"></stop></linearGradient></defs><defs><linearGradient id="grad2_7" x1="0%" y1="0%" x2="56.3%" y2="100%"><stop offset="14.444444444444446%" stop-color="#001220" stop-opacity="1"></stop><stop offset="85.55555555555554%" stop-color="#1b2443" stop-opacity="1"></stop></linearGradient></defs><g transform="translate(1920, 0)"><path d="M0 1026C-51.4 1008.7 -102.7 991.4 -156 984.7C-209.2 978.1 -264.3 982 -313 963.4C-361.8 944.8 -404.2 903.6 -439 861.6C-473.8 819.6 -501 776.8 -549 755.6C-597 734.5 -666 735 -704.3 704.3C-742.6 673.5 -750.3 611.5 -783.9 569.6C-817.6 527.6 -877.1 505.8 -914.2 465.8C-951.2 425.8 -965.7 367.6 -954.9 310.3C-944 253 -907.9 196.6 -915.6 145C-923.2 93.5 -974.6 46.7 -1026 0L0 0Z" fill="#0a1c32"></path><path d="M0 897.8C-44.9 882.6 -89.9 867.5 -136.5 861.6C-183 855.8 -231.2 859.3 -273.9 843C-316.6 826.7 -353.7 790.7 -384.1 753.9C-414.6 717.1 -438.3 679.7 -480.4 661.2C-522.4 642.7 -582.7 643.1 -616.2 616.2C-649.8 589.3 -656.5 535.1 -685.9 498.4C-715.4 461.7 -767.5 442.6 -799.9 407.6C-832.3 372.6 -845 321.6 -835.5 271.5C-826 221.3 -794.5 172 -801.1 126.9C-807.8 81.8 -852.8 40.9 -897.7 0L0 0Z" fill="#312b53"></path><path d="M0 769.5C-38.5 756.5 -77.1 743.5 -117 738.5C-156.9 733.5 -198.2 736.5 -234.8 722.6C-271.3 708.6 -303.2 677.7 -329.3 646.2C-355.3 614.7 -375.7 582.6 -411.7 566.7C-447.8 550.9 -499.5 551.3 -528.2 528.2C-556.9 505.1 -562.7 458.6 -588 427.2C-613.2 395.7 -657.9 379.4 -685.6 349.3C-713.4 319.3 -724.3 275.7 -716.1 232.7C-708 189.7 -681 147.4 -686.7 108.8C-692.4 70.1 -731 35 -769.5 0L0 0Z" fill="#653569"></path><path d="M0 641.3C-32.1 630.4 -64.2 619.6 -97.5 615.5C-130.7 611.3 -165.2 613.8 -195.6 602.1C-226.1 590.5 -252.6 564.8 -274.4 538.5C-296.1 512.2 -313.1 485.5 -343.1 472.3C-373.1 459.1 -416.2 459.4 -440.2 440.2C-464.1 421 -468.9 382.2 -490 356C-511 329.8 -548.2 316.1 -571.4 291.1C-594.5 266.1 -603.5 229.7 -596.8 193.9C-590 158.1 -567.5 122.9 -572.2 90.6C-577 58.4 -609.1 29.2 -641.2 0L0 0Z" fill="#9d3b6f"></path><path d="M0 513C-25.7 504.3 -51.4 495.7 -78 492.4C-104.6 489 -132.1 491 -156.5 481.7C-180.9 472.4 -202.1 451.8 -219.5 430.8C-236.9 409.8 -250.5 388.4 -274.5 377.8C-298.5 367.2 -333 367.5 -352.1 352.1C-371.3 336.8 -375.1 305.7 -392 284.8C-408.8 263.8 -438.6 252.9 -457.1 232.9C-475.6 212.9 -482.8 183.8 -477.4 155.1C-472 126.5 -454 98.3 -457.8 72.5C-461.6 46.7 -487.3 23.4 -513 0L0 0Z" fill="#d04864"></path><path d="M0 384.8C-19.3 378.3 -38.5 371.8 -58.5 369.3C-78.4 366.8 -99.1 368.3 -117.4 361.3C-135.7 354.3 -151.6 338.9 -164.6 323.1C-177.7 307.3 -187.9 291.3 -205.9 283.4C-223.9 275.4 -249.7 275.6 -264.1 264.1C-278.5 252.6 -281.4 229.3 -294 213.6C-306.6 197.9 -328.9 189.7 -342.8 174.7C-356.7 159.7 -362.1 137.8 -358.1 116.3C-354 94.9 -340.5 73.7 -343.3 54.4C-346.2 35 -365.5 17.5 -384.7 0L0 0Z" fill="#f3664c"></path><path d="M0 256.5C-12.8 252.2 -25.7 247.8 -39 246.2C-52.3 244.5 -66.1 245.5 -78.3 240.9C-90.4 236.2 -101.1 225.9 -109.8 215.4C-118.4 204.9 -125.2 194.2 -137.2 188.9C-149.3 183.6 -166.5 183.8 -176.1 176.1C-185.6 168.4 -187.6 152.9 -196 142.4C-204.4 131.9 -219.3 126.5 -228.5 116.4C-237.8 106.4 -241.4 91.9 -238.7 77.6C-236 63.2 -227 49.1 -228.9 36.3C-230.8 23.4 -243.7 11.7 -256.5 0L0 0Z" fill="#ff9127"></path><path d="M0 128.3C-6.4 126.1 -12.8 123.9 -19.5 123.1C-26.1 122.3 -33 122.8 -39.1 120.4C-45.2 118.1 -50.5 113 -54.9 107.7C-59.2 102.4 -62.6 97.1 -68.6 94.5C-74.6 91.8 -83.2 91.9 -88 88C-92.8 84.2 -93.8 76.4 -98 71.2C-102.2 66 -109.6 63.2 -114.3 58.2C-118.9 53.2 -120.7 45.9 -119.4 38.8C-118 31.6 -113.5 24.6 -114.4 18.1C-115.4 11.7 -121.8 5.8 -128.2 0L0 0Z" fill="#ffaa00"></path></g><g transform="translate(0, 1080)"><path d="M0 -1026C49.4 -997.5 98.8 -969 152.8 -965C206.9 -960.9 265.5 -981.3 316.1 -972.9C366.8 -964.6 409.4 -927.6 460.8 -904.4C512.2 -881.1 572.3 -871.6 599.5 -825.2C626.8 -778.8 621 -695.4 653.4 -653.4C685.7 -611.3 756.1 -610.5 807.4 -586.6C858.7 -562.8 891.1 -515.9 914.2 -465.8C937.3 -415.7 951.2 -362.4 950.1 -308.7C949.1 -255 933.1 -200.9 943.2 -149.4C953.4 -97.9 989.7 -48.9 1026 0L0 0Z" fill="#0a1c32"></path><path d="M0 -897.7C43.2 -872.8 86.5 -847.9 133.7 -844.4C181 -840.8 232.3 -858.6 276.6 -851.3C320.9 -844 358.2 -811.7 403.2 -791.3C448.2 -771 500.8 -762.7 524.6 -722C548.4 -681.4 543.4 -608.5 571.7 -571.7C600 -534.9 661.5 -534.2 706.5 -513.3C751.4 -492.4 779.7 -451.4 799.9 -407.6C820.1 -363.7 832.3 -317.1 831.3 -270.1C830.4 -223.1 816.4 -175.8 825.3 -130.7C834.2 -85.6 866 -42.8 897.8 0L0 0Z" fill="#312b53"></path><path d="M0 -769.5C37.1 -748.1 74.1 -726.8 114.6 -723.7C155.1 -720.7 199.1 -735.9 237.1 -729.7C275.1 -723.5 307.1 -695.7 345.6 -678.3C384.1 -660.8 429.2 -653.7 449.7 -618.9C470.1 -584.1 465.8 -521.6 490 -490C514.3 -458.5 567 -457.8 605.5 -440C644.1 -422.1 668.3 -386.9 685.6 -349.3C703 -311.8 713.4 -271.8 712.6 -231.5C711.8 -191.3 699.8 -150.7 707.4 -112C715.1 -73.4 742.3 -36.7 769.5 0L0 0Z" fill="#653569"></path><path d="M0 -641.2C30.9 -623.4 61.8 -605.6 95.5 -603.1C129.3 -600.6 165.9 -613.3 197.6 -608.1C229.2 -602.9 255.9 -579.8 288 -565.2C320.1 -550.7 357.7 -544.8 374.7 -515.7C391.7 -486.7 388.2 -434.7 408.4 -408.4C428.6 -382.1 472.5 -381.5 504.6 -366.6C536.7 -351.7 556.9 -322.4 571.4 -291.1C585.8 -259.8 594.5 -226.5 593.8 -192.9C593.2 -159.4 583.2 -125.6 589.5 -93.4C595.9 -61.2 618.6 -30.6 641.3 0L0 0Z" fill="#9d3b6f"></path><path d="M0 -513C24.7 -498.8 49.4 -484.5 76.4 -482.5C103.4 -480.5 132.7 -490.6 158.1 -486.5C183.4 -482.3 204.7 -463.8 230.4 -452.2C256.1 -440.6 286.2 -435.8 299.8 -412.6C313.4 -389.4 310.5 -347.7 326.7 -326.7C342.8 -305.6 378 -305.2 403.7 -293.3C429.4 -281.4 445.5 -257.9 457.1 -232.9C468.6 -207.9 475.6 -181.2 475.1 -154.4C474.5 -127.5 466.5 -100.5 471.6 -74.7C476.7 -48.9 494.9 -24.5 513 0L0 0Z" fill="#d04864"></path><path d="M0 -384.7C18.5 -374.1 37.1 -363.4 57.3 -361.9C77.6 -360.3 99.6 -368 118.5 -364.8C137.5 -361.7 153.5 -347.9 172.8 -339.1C192.1 -330.4 214.6 -326.9 224.8 -309.4C235 -292 232.9 -260.8 245 -245C257.1 -229.2 283.5 -228.9 302.8 -220C322 -211 334.2 -193.5 342.8 -174.7C351.5 -155.9 356.7 -135.9 356.3 -115.8C355.9 -95.6 349.9 -75.3 353.7 -56C357.5 -36.7 371.1 -18.4 384.8 0L0 0Z" fill="#f3664c"></path><path d="M0 -256.5C12.4 -249.4 24.7 -242.3 38.2 -241.2C51.7 -240.2 66.4 -245.3 79 -243.2C91.7 -241.2 102.4 -231.9 115.2 -226.1C128 -220.3 143.1 -217.9 149.9 -206.3C156.7 -194.7 155.3 -173.9 163.3 -163.3C171.4 -152.8 189 -152.6 201.8 -146.7C214.7 -140.7 222.8 -129 228.5 -116.4C234.3 -103.9 237.8 -90.6 237.5 -77.2C237.3 -63.8 233.3 -50.2 235.8 -37.3C238.4 -24.5 247.4 -12.2 256.5 0L0 0Z" fill="#ff9127"></path><path d="M0 -128.2C6.2 -124.7 12.4 -121.1 19.1 -120.6C25.9 -120.1 33.2 -122.7 39.5 -121.6C45.8 -120.6 51.2 -116 57.6 -113C64 -110.1 71.5 -109 74.9 -103.1C78.3 -97.3 77.6 -86.9 81.7 -81.7C85.7 -76.4 94.5 -76.3 100.9 -73.3C107.3 -70.3 111.4 -64.5 114.3 -58.2C117.2 -52 118.9 -45.3 118.8 -38.6C118.6 -31.9 116.6 -25.1 117.9 -18.7C119.2 -12.2 123.7 -6.1 128.3 0L0 0Z" fill="#ffaa00"></path></g></svg>